<svg data-v-fde0c5aa="" xmlns="http://www.w3.org/2000/svg" viewBox="0 0 300 300" class="iconLeft"><!----><defs data-v-fde0c5aa=""><!----></defs><rect data-v-fde0c5aa="" fill="transparent" x="0" y="0" width="300px" height="300px" class="logo-background-square"></rect><defs data-v-fde0c5aa=""><!----></defs><g data-v-fde0c5aa="" id="b2e18c46-8852-44e5-aa26-92014bd1be6e" fill="#253734" transform="matrix(2.5484663342526686,0,0,2.5484663342526686,106.83717564308621,125.21616392723006)"><path d="M5.39 14.95L5.39 14.95L5.39 14.95Q4.37 15.23 3.07 15.23L3.07 15.23L3.07 15.23Q1.76 15.23 0.95 14.68L0.95 14.68L0.95 14.68Q0.14 14.13 0.14 13.10L0.14 13.10L0.14 13.10Q0.14 12.45 0.76 11.98L0.76 11.98L0.76 11.98Q1.37 11.51 2.55 11.51L2.55 11.51L2.55 11.51Q4.06 11.51 5.04 12.42L5.04 12.42L5.04 12.42Q5.32 12.68 5.57 12.98L5.57 12.98L5.57 12.98Q6.89 12.32 7.60 11.11L7.60 11.11L7.60 11.11Q8.32 9.90 8.32 8.42L8.32 8.42L8.32 8.42Q8.32 6.94 7.63 6.24L7.63 6.24L7.63 6.24Q6.94 5.54 5.94 5.54L5.94 5.54L5.94 5.54Q4.51 5.54 3.61 6.47L3.61 6.47L3.61 6.47Q2.72 7.39 2.72 8.95L2.72 8.95L2.72 8.95Q2.72 9.53 2.85 9.93L2.85 9.93L2.85 9.93Q2.98 10.33 2.98 10.53L2.98 10.53L2.98 10.53Q2.98 10.72 2.83 10.72L2.83 10.72L2.83 10.72Q2.23 10.72 1.75 10.10L1.75 10.10L1.75 10.10Q1.27 9.48 1.27 8.38L1.27 8.38L1.27 8.38Q1.27 7.28 1.69 6.45L1.69 6.45L1.69 6.45Q2.10 5.61 2.77 5.05L2.77 5.05L2.77 5.05Q4.13 3.93 6.03 3.93L6.03 3.93L6.03 3.93Q7.92 3.93 9.18 5.00L9.18 5.00L9.18 5.00Q10.58 6.17 10.60 8.22L10.60 8.22L10.60 8.22Q10.60 10.56 9.46 12.24L9.46 12.24L9.46 12.24Q8.50 13.66 6.79 14.45L6.79 14.45L6.79 14.45Q7.39 15.05 8.11 15.05L8.11 15.05L8.11 15.05Q8.83 15.05 9.29 15.00L9.29 15.00L9.29 15.00Q9.74 14.95 10.03 14.95L10.03 14.95L10.03 14.95Q10.32 14.95 10.32 15.08L10.32 15.08L10.32 15.08Q10.32 15.40 9.70 15.80L9.70 15.80L9.70 15.80Q9.07 16.20 7.88 16.20L7.88 16.20L7.88 16.20Q6.43 16.20 5.39 14.95ZM4.26 13.43L4.26 13.43L4.26 13.43Q3.60 12.77 2.88 12.77L2.88 12.77L2.88 12.77Q2.45 12.77 2.14 12.87L2.14 12.87L2.14 12.87Q1.82 12.96 1.82 13.16L1.82 13.16L1.82 13.16Q1.82 13.58 3.08 13.58L3.08 13.58L3.08 13.58Q3.53 13.58 4.26 13.43ZM15.86 8.79L15.86 8.54L15.86 8.54Q15.86 7.60 17.32 7.60L17.32 7.60L17.32 7.60Q17.68 7.60 17.77 7.84L17.77 7.84L17.77 7.84Q17.86 8.08 17.86 8.57L17.86 8.57L17.86 8.57Q17.86 9.25 17.56 10.70L17.56 10.70L17.56 10.70Q17.25 12.14 17.26 12.64L17.26 12.64L17.26 12.64Q17.26 12.88 17.42 12.88L17.42 12.88L17.42 12.88Q17.63 12.88 17.93 12.61L17.93 12.61L17.93 12.61Q18.24 12.35 18.55 12.03L18.55 12.03L18.55 12.03Q18.86 11.72 19.12 11.45L19.12 11.45L19.12 11.45Q19.38 11.19 19.47 11.19L19.47 11.19L19.47 11.19Q19.67 11.19 19.67 11.66L19.67 11.66L19.67 11.66Q19.67 12.64 18.70 13.55L18.70 13.55L18.70 13.55Q17.08 14.50 16.65 14.50L16.65 14.50L16.65 14.50Q16.60 14.50 16.58 14.49L16.58 14.49L16.58 14.49Q16.04 14.49 15.83 14.14L15.83 14.14L15.83 14.14Q15.61 13.79 15.55 13.26L15.55 13.26L15.55 13.26Q15.27 13.78 14.78 14.15L14.78 14.15L14.78 14.15Q14.29 14.52 13.66 14.52L13.66 14.52L13.66 14.52Q12.56 14.52 11.96 14.10L11.96 14.10L11.96 14.10Q11.37 13.68 11.37 12.85L11.37 12.85L11.37 12.85Q11.37 12.49 11.47 12.18L11.47 12.18L11.47 12.18Q11.58 11.87 11.82 11.42L11.82 11.42L12.22 7.98L12.22 7.98Q12.66 7.64 13.47 7.64L13.47 7.64L13.47 7.64Q14.11 7.64 14.20 8.48L14.20 8.48L14.20 8.48Q14.27 9.17 14.13 9.71L14.13 9.71L14.13 9.71Q14 10.25 13.78 11.07L13.78 11.07L13.78 11.07Q13.55 11.89 13.55 12.52L13.55 12.52L13.55 12.52Q13.55 13.02 14.18 13.02L14.18 13.02L14.18 13.02Q14.87 13.02 15.37 11.82L15.37 11.82L15.37 11.82Q15.76 10.89 15.90 9.76L15.90 9.76L15.90 9.76Q15.89 9.65 15.88 9.47L15.88 9.47L15.88 9.47Q15.88 9.30 15.87 9.13L15.87 9.13L15.87 9.13Q15.86 8.96 15.86 8.79L15.86 8.79ZM24.63 13.26L24.63 13.26L24.63 13.26Q23.52 14.56 21.97 14.56L21.97 14.56L21.97 14.56Q20.43 14.56 19.66 13.77L19.66 13.77L19.66 13.77Q18.89 12.98 18.90 11.80L18.90 11.80L18.90 11.80Q18.89 10.14 19.95 8.93L19.95 8.93L19.95 8.93Q21.01 7.73 22.74 7.73L22.74 7.73L22.74 7.73Q23.52 7.73 24.00 7.92L24.00 7.92L24.00 7.92Q24.82 8.26 24.82 8.55L24.82 8.55L24.82 8.55Q24.82 8.78 23.67 8.79L23.67 8.79L23.67 8.79Q22.51 8.79 21.73 9.58L21.73 9.58L21.73 9.58Q20.96 10.37 20.96 11.58L20.96 11.58L20.96 11.58Q20.96 12.21 21.33 12.63L21.33 12.63L21.33 12.63Q21.70 13.06 22.38 13.06L22.38 13.06L22.38 13.06Q23.06 13.06 23.51 12.78L23.51 12.78L23.51 12.78Q22.51 12.11 22.51 10.84L22.51 10.84L22.51 10.84Q22.50 10.16 23.00 9.61L23.00 9.61L23.00 9.61Q23.49 9.06 24.27 9.05L24.27 9.05L24.27 9.05Q25.05 9.04 25.38 9.48L25.38 9.48L25.38 9.48Q25.72 9.91 25.72 10.59L25.72 10.59L25.72 10.59Q25.72 11.27 25.40 12.03L25.40 12.03L25.48 12.03L25.48 12.03Q26.10 12.01 26.54 11.59L26.54 11.59L26.54 11.59Q26.71 11.42 26.83 11.30L26.83 11.30L26.83 11.30Q26.95 11.17 27.08 11.17L27.08 11.17L27.08 11.17Q27.27 11.17 27.27 11.63L27.27 11.63L27.27 11.63Q27.27 12.49 26.77 12.92L26.77 12.92L26.77 12.92Q26.26 13.34 25.66 13.34L25.66 13.34L25.66 13.34Q25.05 13.34 24.63 13.26ZM24.50 11.63L24.50 11.63L24.50 11.63Q24.74 11.13 24.74 10.65L24.74 10.65L24.74 10.65Q24.74 10.18 24.43 10.18L24.43 10.18L24.43 10.18Q24.30 10.18 24.22 10.36L24.22 10.36L24.22 10.36Q24.14 10.54 24.14 10.71L24.14 10.71L24.14 10.71Q24.14 11.27 24.50 11.63ZM27.20 13.69L27.20 13.69L27.20 13.69Q27.03 13.31 26.96 12.82L26.96 12.82L26.96 12.82Q26.89 12.32 26.89 11.42L26.89 11.42L26.89 11.42Q26.89 10.53 27.23 9.00L27.23 9.00L26.60 9.00L26.60 9.00Q26.43 9.00 26.43 8.86L26.43 8.86L26.43 8.86Q26.43 8.53 26.50 8.31L26.50 8.31L26.50 8.31Q26.56 8.09 26.80 7.81L26.80 7.81L27.13 7.81L27.13 7.81Q27.33 7.81 27.55 7.80L27.55 7.80L27.55 7.80Q28.22 5.64 28.92 5.64L28.92 5.64L28.92 5.64Q29.48 5.66 29.71 6.36L29.71 6.36L29.71 6.36Q29.76 6.55 29.83 6.78L29.83 6.78L29.26 7.78L29.26 7.78Q30.24 7.81 30.50 7.81L30.50 7.81L30.50 7.81Q30.76 7.81 30.78 7.86L30.78 7.86L30.78 7.86Q30.80 7.91 30.80 8.01L30.80 8.01L30.80 8.01Q30.80 8.26 30.68 8.64L30.68 8.64L30.68 8.64Q30.56 9.02 30.41 9.00L30.41 9.00L29.01 8.93L29.01 8.93Q28.71 10.64 28.71 11.76L28.71 11.76L28.71 11.76Q28.71 12.88 29.04 12.88L29.04 12.88L29.04 12.88Q29.30 12.88 30.00 12.44L30.00 12.44L30.00 12.44Q30.70 12.00 31.01 11.59L31.01 11.59L31.01 11.59Q31.32 11.19 31.51 11.19L31.51 11.19L31.51 11.19Q31.71 11.19 31.71 11.66L31.71 11.66L31.71 11.66Q31.71 12.14 31.37 12.63L31.37 12.63L31.37 12.63Q31.04 13.13 30.53 13.54L30.53 13.54L30.53 13.54Q30.02 13.96 29.39 14.22L29.39 14.22L29.39 14.22Q28.77 14.49 28.31 14.49L28.31 14.49L28.31 14.49Q27.85 14.49 27.60 14.27L27.60 14.27L27.60 14.27Q27.36 14.06 27.20 13.69ZM36.67 13.26L36.67 13.26L36.67 13.26Q35.56 14.56 34.01 14.56L34.01 14.56L34.01 14.56Q32.47 14.56 31.70 13.77L31.70 13.77L31.70 13.77Q30.93 12.98 30.94 11.80L30.94 11.80L30.94 11.80Q30.93 10.14 31.99 8.93L31.99 8.93L31.99 8.93Q33.05 7.73 34.78 7.73L34.78 7.73L34.78 7.73Q35.56 7.73 36.04 7.92L36.04 7.92L36.04 7.92Q36.86 8.26 36.86 8.55L36.86 8.55L36.86 8.55Q36.86 8.78 35.71 8.79L35.71 8.79L35.71 8.79Q34.55 8.79 33.77 9.58L33.77 9.58L33.77 9.58Q33.00 10.37 33.00 11.58L33.00 11.58L33.00 11.58Q33.00 12.21 33.37 12.63L33.37 12.63L33.37 12.63Q33.74 13.06 34.42 13.06L34.42 13.06L34.42 13.06Q35.10 13.06 35.55 12.78L35.55 12.78L35.55 12.78Q34.55 12.11 34.55 10.84L34.55 10.84L34.55 10.84Q34.54 10.16 35.03 9.61L35.03 9.61L35.03 9.61Q35.53 9.06 36.31 9.05L36.31 9.05L36.31 9.05Q37.09 9.04 37.42 9.48L37.42 9.48L37.42 9.48Q37.76 9.91 37.76 10.59L37.76 10.59L37.76 10.59Q37.76 11.27 37.44 12.03L37.44 12.03L37.52 12.03L37.52 12.03Q38.14 12.01 38.58 11.59L38.58 11.59L38.58 11.59Q38.75 11.42 38.87 11.30L38.87 11.30L38.87 11.30Q38.99 11.17 39.12 11.17L39.12 11.17L39.12 11.17Q39.31 11.17 39.31 11.63L39.31 11.63L39.31 11.63Q39.31 12.49 38.81 12.92L38.81 12.92L38.81 12.92Q38.30 13.34 37.70 13.34L37.70 13.34L37.70 13.34Q37.09 13.34 36.67 13.26ZM36.54 11.63L36.54 11.63L36.54 11.63Q36.78 11.13 36.78 10.65L36.78 10.65L36.78 10.65Q36.78 10.18 36.47 10.18L36.47 10.18L36.47 10.18Q36.34 10.18 36.26 10.36L36.26 10.36L36.26 10.36Q36.18 10.54 36.18 10.71L36.18 10.71L36.18 10.71Q36.18 11.27 36.54 11.63ZM41.54 11.21L41.40 13.83L41.40 13.83Q41.40 14.66 39.79 14.66L39.79 14.66L39.79 14.66Q39.44 14.66 39.38 14.30L39.38 14.30L39.38 14.30Q39.31 13.94 39.31 13.30L39.31 13.30L39.31 13.30Q39.31 11.94 39.86 9.94L39.86 9.94L39.86 9.94Q40.77 6.64 41.80 6.05L41.80 6.05L41.80 6.05Q41.94 5.96 42.11 5.96L42.11 5.96L42.11 5.96Q42.28 5.96 42.28 6.51L42.28 6.51L42.28 6.51Q42.28 7.06 42.22 7.48L42.22 7.48L42.22 7.48Q42.11 8.32 41.83 9.65L41.83 9.65L41.83 9.65Q41.54 10.98 41.54 11.21L41.54 11.21ZM42.35 10.07L42.35 10.07L42.35 10.07Q42.35 9.88 42.55 9.83L42.55 9.83L42.55 9.83Q42.76 9.77 43.06 9.72L43.06 9.72L43.06 9.72Q43.37 9.67 43.74 9.58L43.74 9.58L43.74 9.58Q44.10 9.48 44.41 9.21L44.41 9.21L44.41 9.21Q45.12 8.60 45.12 7.15L45.12 7.15L45.12 7.15Q45.12 6.23 44.50 5.74L44.50 5.74L44.50 5.74Q43.88 5.25 42.71 5.25L42.71 5.25L42.71 5.25Q41.54 5.25 40.52 5.74L40.52 5.74L40.52 5.74Q40.14 5.92 39.84 6.08L39.84 6.08L39.84 6.08Q39.54 6.23 39.28 6.23L39.28 6.23L39.28 6.23Q39.03 6.23 39.03 6.08L39.03 6.08L39.03 6.08Q39.03 5.84 39.49 5.29L39.49 5.29L39.49 5.29Q39.96 4.79 40.96 4.35L40.96 4.35L40.96 4.35Q41.96 3.92 43.06 3.92L43.06 3.92L43.06 3.92Q45.15 3.91 46.31 4.90L46.31 4.90L46.31 4.90Q47.32 5.77 47.32 7.15L47.32 7.15L47.32 7.15Q47.32 8.53 46.33 9.61L46.33 9.61L46.33 9.61Q45.33 10.70 43.84 10.70L43.84 10.70L43.84 10.70Q42.35 10.70 42.35 10.07ZM48.86 14.49L48.86 14.49L48.86 14.49Q47.46 14.49 47.46 11.87L47.46 11.87L47.46 11.87Q47.46 10.44 47.81 9.28L47.81 9.28L47.81 9.28Q48.36 7.49 49.04 7.49L49.04 7.49L49.04 7.49Q49.45 7.49 49.69 8.04L49.69 8.04L49.69 8.04Q49.88 8.46 49.87 8.86L49.87 8.86L49.87 8.86Q49.87 9.42 49.53 10.84L49.53 10.84L49.53 10.84Q49.21 12.07 49.21 12.36L49.21 12.36L49.21 12.36Q49.21 12.66 49.36 12.77L49.36 12.77L49.36 12.77Q49.50 12.88 49.71 12.88L49.71 12.88L49.71 12.88Q49.91 12.88 50.22 12.61L50.22 12.61L50.22 12.61Q50.53 12.35 50.83 12.03L50.83 12.03L50.83 12.03Q51.14 11.72 51.40 11.45L51.40 11.45L51.40 11.45Q51.66 11.19 51.76 11.19L51.76 11.19L51.76 11.19Q51.95 11.19 51.95 11.66L51.95 11.66L51.95 11.66Q51.95 12.64 50.97 13.57L50.97 13.57L50.97 13.57Q49.98 14.50 48.86 14.49ZM49.43 6.36L49.43 6.36L49.43 6.36Q49.06 5.80 49.06 5.15L49.06 5.15L49.06 5.15Q49.06 4.51 49.26 4.08L49.26 4.08L49.26 4.08Q49.46 3.65 49.64 3.45L49.64 3.45L49.64 3.45Q49.83 3.25 50.06 3.25L50.06 3.25L50.06 3.25Q50.46 3.25 50.78 3.83L50.78 3.83L50.78 3.83Q51.10 4.41 51.10 4.80L51.10 4.80L51.10 4.80Q51.10 5.53 50.59 5.94L50.59 5.94L50.59 5.94Q50.08 6.36 49.43 6.36ZM59.85 11.14L59.85 11.14L59.85 11.14Q60.10 11.14 60.10 11.79L60.10 11.79L60.10 11.79Q60.10 12.14 59.81 12.63L59.81 12.63L59.81 12.63Q59.51 13.13 59.04 13.54L59.04 13.54L59.04 13.54Q58.58 13.96 58.00 14.22L58.00 14.22L58.00 14.22Q57.43 14.49 56.88 14.49L56.88 14.49L56.88 14.49Q56.14 14.49 55.89 13.19L55.89 13.19L55.89 13.19Q55.52 13.79 54.94 14.18L54.94 14.18L54.94 14.18Q54.35 14.56 53.36 14.56L53.36 14.56L53.36 14.56Q52.37 14.56 51.77 13.94L51.77 13.94L51.77 13.94Q51.17 13.33 51.18 12.45L51.18 12.45L51.18 12.45Q51.18 10.07 52.77 8.69L52.77 8.69L52.77 8.69Q53.44 8.12 54.02 7.94L54.02 7.94L54.02 7.94Q54.60 7.76 55.24 7.76L55.24 7.76L55.24 7.76Q55.89 7.76 56.29 7.98L56.29 7.98L56.29 7.98Q56.49 7.57 56.74 7.57L56.74 7.57L56.74 7.57Q57.23 7.57 57.67 8.00L57.67 8.00L57.67 8.00Q58.11 8.43 58.11 8.81L58.11 8.81L58.11 8.81Q57.92 9.27 57.54 9.91L57.54 9.91L57.54 9.91Q57.43 10.56 57.43 11.72L57.43 11.72L57.43 11.72Q57.43 12.88 57.72 12.88L57.72 12.88L57.72 12.88Q58.09 12.88 59.49 11.42L59.49 11.42L59.49 11.42Q59.74 11.14 59.85 11.14ZM53.24 11.98L53.24 11.98L53.24 11.98Q53.24 13.06 54.04 13.06L54.04 13.06L54.04 13.06Q54.89 13.05 55.45 12.15L55.45 12.15L55.45 12.15Q55.65 11.84 55.78 11.40L55.78 11.40L55.78 11.40Q55.78 9.83 56.06 8.71L56.06 8.71L56.06 8.71Q54.92 8.93 54.08 9.80L54.08 9.80L54.08 9.80Q53.24 10.67 53.24 11.98Z"></path></g><defs data-v-fde0c5aa=""><!----></defs><g data-v-fde0c5aa="" id="a650c7ba-d1f2-476e-aef4-7324a0291ab2" stroke="none" fill="#FF6E97" transform="matrix(1.399998885883904,0,0,1.399998885883904,25.10401404382975,108.00003342348288)"><path d="M31.27 23.91h3.14c5.88 0 10.66-4.78 10.66-10.66 0-.52-.42-.93-.93-.93H21.55c-.04 0-.07.02-.11.02-.15-.01-.29-.02-.44-.02-5.71 0-10.36 4.65-10.36 10.36 0 .52.42.93.93.93.52 0 .93-.42.93-.93 0-4.68 3.81-8.49 8.49-8.49 4.47 0 8.13 3.47 8.46 7.85h-7.9c-.52 0-.93.42-.93.93 0 .52.42.93.93.93h7.84c-.6 4.1-4.13 7.25-8.39 7.25a8.51 8.51 0 0 1-6.36-2.86.934.934 0 1 0-1.4 1.24c1.97 2.22 4.79 3.49 7.76 3.49 5.29.01 9.66-3.98 10.27-9.11zm-4.36-9.73h16.24c-.47 4.41-4.21 7.85-8.74 7.85h-3.09a10.35 10.35 0 0 0-4.41-7.85z"></path><path d="M38.94 26.83c-5.33 0-9.73 4.02-10.35 9.19h-3.17c-5.92 0-10.73 4.81-10.73 10.73 0 .52.42.93.93.93h4.43c.52 0 .93-.42.93-.93s-.42-.93-.93-.93H16.6c.47-4.45 4.24-7.93 8.81-7.93h3.12c.2 3.28 1.91 6.15 4.45 7.93h-7.22c-.52 0-.93.42-.93.93s.42.93.93.93h12.6c.04 0 .07-.02.11-.02.15.01.29.02.45.02 5.75 0 10.43-4.68 10.43-10.43s-4.66-10.42-10.41-10.42zm0 18.99c-4.51 0-8.2-3.5-8.53-7.93h7.97c.52 0 .93-.42.93-.93 0-.52-.42-.93-.93-.93h-7.9c.6-4.13 4.16-7.32 8.46-7.32 4.72 0 8.56 3.84 8.56 8.56 0 4.71-3.84 8.55-8.56 8.55z"></path></g><!----></svg>